<?xml version="1.0" encoding="UTF-8"?>
<svg version="1.1" xmlns="http://www.w3.org/2000/svg" width="512" height="512">
<path d="M0 0 C1.79876313 -0.02676693 3.5975052 -0.05498178 5.39622498 -0.08451843 C11.24917401 -0.17295551 17.1021439 -0.22013724 22.95556641 -0.2644043 C24.98406771 -0.28193624 27.01256732 -0.29966507 29.04106522 -0.3175869 C37.48263717 -0.38966134 45.92416746 -0.45183819 54.36598778 -0.48545551 C66.40340744 -0.53340495 78.43693365 -0.63988065 90.472978 -0.82994872 C98.97367255 -0.95953511 107.47334054 -1.02312224 115.97500098 -1.0383088 C121.03737793 -1.04895999 126.09581343 -1.08715207 131.15711594 -1.19579506 C165.95811664 -1.90597652 165.95811664 -1.90597652 174.96739388 6.68298054 C177.42341498 9.55560691 179.51408668 12.49943219 181.44405556 15.74649048 C183.19943244 18.55008731 185.30227412 20.57204852 187.71728516 22.8215332 C188.40113281 23.49764648 189.08498047 24.17375977 189.78955078 24.87036133 C190.43472656 25.50264648 191.07990234 26.13493164 191.74462891 26.78637695 C195.61811615 30.58643316 199.43228077 34.37437452 202.95947266 38.5012207 C207.72765039 44.03630342 212.98529734 49.09671246 218.18212891 54.22387695 C229.37000306 65.26177003 229.37000306 65.26177003 233.15087891 69.69262695 C237.98846286 75.35486508 243.38614691 80.49566803 248.68212891 85.72387695 C254.57157069 91.53795111 260.41936404 97.31424452 265.79541016 103.61450195 C270.19260037 108.53061523 274.98952458 113.09132424 279.68212891 117.72387695 C292.56824217 130.44508566 292.56824217 130.44508566 296.64979458 135.56487846 C298.67787774 137.87382704 298.67787774 137.87382704 301.59935856 139.71833992 C306.33619153 143.12414697 309.9327719 146.712279 311.3756187 152.51094961 C312.42155173 160.50572931 312.24795043 168.56647154 312.1188935 176.61250663 C312.0729305 180.30590739 312.0969085 183.99897086 312.11195374 187.6925354 C312.13056982 194.91531786 312.08581462 202.13636631 312.01977687 209.35881601 C311.9454413 217.78208871 311.93695166 226.20505119 311.93156559 234.62860335 C311.91995155 249.66708523 311.85266552 264.7047904 311.75219727 279.74291992 C311.65495641 294.3100102 311.59116657 308.87669103 311.56762695 323.4440918 C311.56617048 324.34107013 311.56471401 325.23804846 311.5632134 326.16220795 C311.55742617 329.76854086 311.5516898 333.37487384 311.54606509 336.98120701 C311.5220479 351.73782718 311.47027222 366.49436689 311.4151566 381.25089884 C311.40274878 384.60496192 311.39157918 387.95902568 311.38148952 391.31309652 C311.3546379 400.13039686 311.31901336 408.94750261 311.25679141 417.76463257 C311.23116812 421.40789553 311.20981761 425.05102749 311.20124435 428.69437408 C311.19164853 432.65643824 311.15874555 436.61812328 311.12364197 440.58004761 C311.12419506 441.71393067 311.12474814 442.84781374 311.12531799 444.0160569 C310.98820566 455.08289366 309.27755464 466.1358488 303.99462891 475.97387695 C303.64505127 476.64298096 303.29547363 477.31208496 302.93530273 478.00146484 C294.54853496 493.5811879 281.14103536 504.89435055 264.31808633 510.51350832 C257.44696564 512.54023171 251.20549153 513.15546936 244.06489563 513.11828613 C242.94789266 513.12437724 241.8308897 513.13046834 240.68003815 513.13674402 C236.96489057 513.15329399 233.25008873 513.14860951 229.53491211 513.14379883 C226.85976501 513.15114388 224.18464314 513.15963965 221.50950623 513.16946411 C215.01316769 513.19044575 208.51691854 513.19506311 202.02055011 513.19327623 C196.73489768 513.19196472 191.44927294 513.19579249 186.16362572 513.20320129 C184.63670085 513.20530067 183.10977598 513.20739827 181.58285111 513.20949411 C180.82266658 513.21053764 180.06248204 513.21158117 179.27926161 513.21265632 C164.92423414 513.23153 150.56925784 513.23051756 136.21422311 513.22368699 C123.11153532 513.21811584 110.00904331 513.23892378 96.90640125 513.27204746 C83.42265099 513.30586746 69.93899428 513.32094234 56.45520085 513.31633043 C48.89715307 513.31409384 41.33928612 513.31920932 33.7812748 513.34422302 C27.34508818 513.36534411 20.90918152 513.36872224 14.47298298 513.34992343 C11.19585318 513.34083065 7.91934612 513.34218634 4.64223862 513.36027908 C-18.83637599 513.48089284 -37.19397682 510.16104045 -54.84912109 493.31762695 C-69.57981123 477.84107909 -73.79281277 458.98176356 -73.70555115 438.23454285 C-73.70973206 436.60130156 -73.7152137 434.96806318 -73.72187096 433.33483011 C-73.7362451 428.88000949 -73.73210614 424.42537516 -73.72470415 419.9705447 C-73.71995474 415.15309053 -73.73249798 410.33567564 -73.74272156 405.51823425 C-73.75988056 396.0931125 -73.76075555 386.66805749 -73.75550865 377.24292418 C-73.75146013 369.57841407 -73.75291861 361.91392362 -73.75825691 354.24941444 C-73.75900533 353.15675233 -73.75975376 352.06409021 -73.76052486 350.93831712 C-73.76205641 348.71825676 -73.76359475 346.4981964 -73.76513983 344.27813605 C-73.77885452 323.47836949 -73.77343454 302.67864058 -73.76195461 281.87887488 C-73.7520245 262.87241862 -73.76496094 243.86605975 -73.7888888 224.85961851 C-73.81330288 205.31894513 -73.82288193 185.77831707 -73.81623608 166.23762876 C-73.81274884 155.27698866 -73.81494312 144.31642343 -73.83248711 133.35579491 C-73.847238 124.02481664 -73.84780689 114.69396595 -73.8304162 105.3629901 C-73.82192739 100.60753697 -73.81970457 95.85231145 -73.83506775 91.09687042 C-73.84898839 86.73372312 -73.84405788 82.37099685 -73.82482851 78.00787345 C-73.82109065 76.43934828 -73.8239257 74.87078878 -73.83444016 73.3022944 C-73.96594939 52.16150895 -68.13459715 34.16036732 -53.29833984 18.60668945 C-38.03913201 4.05523709 -20.3570839 0.1458179 0 0 Z " fill="#9900CC" transform="translate(137.31787109375,-0.723876953125)"/>
<path d="M0 0 C3.31500494 1.65750247 4.56406245 2.32514059 6.85546875 4.87890625 C7.65295532 5.75373657 7.65295532 5.75373657 8.46655273 6.64624023 C9.03446533 7.27860596 9.60237793 7.91097168 10.1875 8.5625 C16.28982661 15.24093469 22.59579686 21.6730853 29.04956055 28.01196289 C32.25376176 31.17705574 35.35839362 34.36051965 38.28515625 37.78515625 C43.05014583 43.31806017 48.30582886 48.37546026 53.5 53.5 C64.68787416 64.53789308 64.68787416 64.53789308 68.46875 68.96875 C73.30633396 74.63098813 78.704018 79.77179108 84 85 C89.88944178 90.81407415 95.73723514 96.59036757 101.11328125 102.890625 C105.51047146 107.80673828 110.30739568 112.36744729 115 117 C127.05025513 128.89604711 127.05025513 128.89604711 132.45751953 135.23486328 C134.97349061 138.11401348 137.70111326 140.76978043 140.4375 143.4375 C142.31622789 145.27144296 144.16733147 147.11918255 146 149 C146 149.33 146 149.66 146 150 C97.82 150 49.64 150 0 150 C0 100.5 0 51 0 0 Z " fill="#B84FDB" transform="translate(302,0)"/>
<path d="M0 0 C4.1521643 1.65327691 5.14369589 4.38435389 6.8671875 8.25390625 C12.16613867 18.97749529 19.20364881 24.47126516 28.98388672 31.0534668 C40.08804586 38.564951 49.46115383 46.76711608 52.9921875 60.19140625 C54.71233145 76.95898723 51.64110251 92.12498683 41.70703125 105.984375 C39.55943536 108.44962172 38.09262402 109.17332768 34.8671875 109.75390625 C31.9921875 109.19140625 31.9921875 109.19140625 30.0546875 107.50390625 C28.70282808 104.56162397 28.97933737 103.22995663 29.9921875 100.19140625 C30.9821875 98.70640625 30.9821875 98.70640625 31.9921875 97.19140625 C31.85819123 88.06291047 26.85521184 80.0629158 20.8671875 73.50390625 C17.76808073 70.6179291 14.42021307 68.58341816 10.75 66.484375 C9.67121582 65.86457764 8.59243164 65.24478027 7.48095703 64.60620117 C6.65966309 64.13931885 5.83836914 63.67243652 4.9921875 63.19140625 C5.00551117 64.12133392 5.01883484 65.0512616 5.03256226 66.0093689 C5.15460276 74.80634915 5.24433091 83.60315593 5.30306053 92.40079308 C5.3342704 96.92299266 5.37655123 101.44450465 5.44482422 105.96630859 C5.5103899 110.33654079 5.5459712 114.70611493 5.56145096 119.0768013 C5.5724711 120.73771132 5.59399053 122.39858848 5.62656784 124.05921555 C5.80576859 133.57932127 5.72569811 141.70576924 -1.0078125 149.19140625 C-9.26656702 156.24831135 -17.95281415 158.84539804 -28.734375 158.53125 C-38.40604907 157.52715019 -45.59709217 153.45688929 -52.0078125 146.19140625 C-55.72650231 140.33165261 -55.94326808 133.9464749 -55.0078125 127.19140625 C-52.45150956 120.10239948 -46.60538331 115.61816528 -40.11328125 112.19140625 C-31.52181175 108.29810417 -22.85528374 107.92431037 -14.0078125 111.12890625 C-11.62059498 112.07497683 -9.3038079 113.04340855 -7.0078125 114.19140625 C-7.01149967 113.62818287 -7.01518684 113.06495949 -7.01898575 112.48466873 C-7.10732128 98.78050304 -7.17325911 85.07638721 -7.21506119 71.37199783 C-7.23595476 64.7446356 -7.26430532 58.11747852 -7.30957031 51.49023438 C-7.352964 45.09711434 -7.37693627 38.70419189 -7.38732147 32.31093597 C-7.39472442 29.86921832 -7.40918023 27.42751174 -7.43073273 24.98587799 C-7.45967968 21.57140043 -7.46377202 18.15774416 -7.46191406 14.74316406 C-7.47629517 13.72896393 -7.49067627 12.71476379 -7.50549316 11.66983032 C-7.46521289 4.84940567 -7.46521289 4.84940567 -5.16741943 1.54388428 C-3.0078125 0.19140625 -3.0078125 0.19140625 0 0 Z " fill="#FEFCFE" transform="translate(257.0078125,235.80859375)"/>
<path d="M0 0 C1.98 0.99 1.98 0.99 4 2 C3.01 2.33 2.02 2.66 1 3 C1 51.51 1 100.02 1 150 C0.67 150 0.34 150 0 150 C0 100.5 0 51 0 0 Z " fill="#B13DD7" transform="translate(302,0)"/>
</svg>
